<?xml version="1.0" encoding="utf-8"?>
<?xml-stylesheet type="text/xsl" href="rss1.xsl"?>
<rss version="2.0" xmlns:atom="http://www.w3.org/2005/Atom" xmlns:content="http://purl.org/rss/1.0/modules/content/" xmlns:dc="http://purl.org/dc/elements/1.1/" xmlns:media="http://search.yahoo.com/mrss/">
<channel>
 <title>Getty</title>
 <link>http://www.gettyimg.com/</link>
 <atom:link href="http://www.gettyimg.com/" rel="self" type="application/rss+xml" />

 
                <item>
                <title><![CDATA[【Apple Music】WEB-RiP - Rihanna - Where Have You Been (1080p)]]></title>
                <link><![CDATA[https://sharemania.us/threads/rihanna-where-have-you-been-1080p.222977/]]></link>
                <description><![CDATA[<article>
<blockquote class="messageText SelectQuoteContainer ugc baseHtml">
<img src="https://i.imgur.com/PhuzlC7.jpg" class="bbCodeImage LbImage" alt="[​IMG]" data-url="https://i.imgur.com/PhuzlC7.jpg" style=""><br>
<br>
<div class="bbCodeBlock bbCodeCode">
<div class="type">Code:</div>
<pre>General
Complete name                  : C:\Users\asus\Desktop\Rihanna - Where Have You Been.mp4
Format                         : MPEG-4
Format profile                 : Base Media
Codec ID                       : isom (isom/iso2/avc1/mp41)
File size                      : 316 MiB
Duration                       : 4 min 15 s
Overall bit rate               : 10.4 Mb/s
Frame rate                     : 23.976 FPS
Movie name                     : Where Have You Been
Performer                      : Rihanna
Genre                          : Pop
ContentType                    : Music Video
Recorded date                  : 2012-01-01 08:00:00 UTC
Writing application            : Lavf57.29.101
Copyright                      : ℗ 2012 The Island Def Jam Music Group

Video
ID                             : 1
Format                         : AVC
Format/Info                    : Advanced Video Codec
Format profile                 : High@L4
Format settings                : CABAC / 5 Ref Frames
Format settings, CABAC         : Yes
Format settings, Reference fra : 5 frames
Codec ID                       : avc1
Codec ID/Info                  : Advanced Video Coding
Duration                       : 4 min 15 s
Bit rate                       : 10.1 Mb/s
Width                          : 1 920 pixels
Height                         : 776 pixels
Display aspect ratio           : 2.474
Frame rate mode                : Constant
Frame rate                     : 23.976 (23976/1000) FPS
Color space                    : YUV
Chroma subsampling             : 4:2:0
Bit depth                      : 8 bits
Scan type                      : Progressive
Bits/(Pixel*Frame)             : 0.284
Stream size                    : 309 MiB (98%)
Color range                    : Limited
Color primaries                : BT.709
Transfer characteristics       : BT.709
Matrix coefficients            : BT.709
Codec configuration box        : avcC

Audio
ID                             : 2
Format                         : AAC LC
Format/Info                    : Advanced Audio Codec Low Complexity
Codec ID                       : mp4a-40-2
Duration                       : 4 min 15 s
Bit rate mode                  : Constant
Bit rate                       : 239 kb/s
Channel(s)                     : 2 channels
Channel layout                 : L R
Sampling rate                  : 48.0 kHz
Frame rate                     : 46.875 FPS (1024 SPF)
Compression mode               : Lossy
Stream size                    : 7.29 MiB (2%)
Default                        : Yes
Alternate group                : 1

</pre>
</div>
<div class="bbCodeBlock bbCodeVfcHH HiddenContent">
<div class="attribution type">Hidden Content:</div>
<blockquote>You must either reply or click 'Like' to see the hidden information contained here.</blockquote>
</div>
<div class="messageTextEndMarker">&nbsp;</div>
</blockquote>
</article>]]></description>
                <author><![CDATA[vitalya3]]></author>
                </item>

                
                <item>
                <title><![CDATA[【Requests】[REQ AUD] - Loreen - Sober (Singles/Remixes) [FLAC]]]></title>
                <link><![CDATA[https://sharemania.us/threads/loreen-sober-singles-remixes-flac.222976/]]></link>
                <description><![CDATA[<article>
<blockquote class="messageText SelectQuoteContainer ugc baseHtml">
Does anyone have these songs in lossless?<br>
<br>
Sober:<br>
01. Sober <i>original version</i><br>
02. Sober (Acoustic)<br>
03. Sober (Single Version)<br>
<br>
<a href="https://www.qobuz.com/se-en/album/sober-loreen/0825646630318" target="_blank" class="externalLink" rel="nofollow">https://www.qobuz.com/se-en/album/sober-loreen/0825646630318</a><br>
<br>
Sober (Remixes):<br>
01. Sober (Ali Payami Remix Edit)<br>
02. Sober (PJ Harmony Remix Edit)<br>
<br>
<a href="https://www.qobuz.com/se-en/album/sober-loreen/0825646622924" target="_blank" class="externalLink" rel="nofollow">https://www.qobuz.com/se-en/album/sober-loreen/0825646622924</a>
<div class="messageTextEndMarker">&nbsp;</div>
</blockquote>
</article>]]></description>
                <author><![CDATA[Sil281]]></author>
                </item>

                </channel></rss>